<?xml version="1.0" encoding="UTF-8" standalone="no"?>
<svg
   xmlns:dc="http://purl.org/dc/elements/1.1/"
   xmlns:cc="http://creativecommons.org/ns#"
   xmlns:rdf="http://www.w3.org/1999/02/22-rdf-syntax-ns#"
   xmlns:svg="http://www.w3.org/2000/svg"
   xmlns="http://www.w3.org/2000/svg"
   xmlns:sodipodi="http://sodipodi.sourceforge.net/DTD/sodipodi-0.dtd"
   xmlns:inkscape="http://www.inkscape.org/namespaces/inkscape"
   version="1.1"
   id="Calque_1"
   x="0px"
   y="0px"
   viewBox="0 0 350 350"
   style="enable-background:new 0 0 350 350;"
   xml:space="preserve"
   sodipodi:docname="polyline.svg"
   inkscape:version="1.0.1 (3bc2e813f5, 2020-09-07)"><metadata
   id="metadata12"><rdf:RDF><cc:Work
       rdf:about=""><dc:format>image/svg+xml</dc:format><dc:type
         rdf:resource="http://purl.org/dc/dcmitype/StillImage" /></cc:Work></rdf:RDF></metadata><defs
   id="defs10" /><sodipodi:namedview
   pagecolor="#ffffff"
   bordercolor="#666666"
   borderopacity="1"
   objecttolerance="10"
   gridtolerance="10"
   guidetolerance="10"
   inkscape:pageopacity="0"
   inkscape:pageshadow="2"
   inkscape:window-width="723"
   inkscape:window-height="480"
   id="namedview8"
   showgrid="false"
   inkscape:zoom="2.4285714"
   inkscape:cx="175"
   inkscape:cy="323.23529"
   inkscape:window-x="0"
   inkscape:window-y="0"
   inkscape:window-maximized="0"
   inkscape:current-layer="icon" />
<desc
   id="desc2">Created with Fabric.js 1.7.22</desc>
<g
   id="icon"
   transform="translate(-1.9444444444444287 -1.9444444444444287) scale(3.89 3.89)">
	<path
   d="M86.5,21.8C85.6,15.5,83,9.7,78.9,5c-0.5-0.1-1-0.1-1.6,0.1c-0.7,0.1-1.4,0.4-1.8,1c-0.2,0.2-0.3,0.5-0.4,0.7   c4,4.3,6.6,9.6,7.4,15.6c1,7.5-0.9,15-5.5,21c-3.8,5-8.9,8.3-14.4,10c-1.1-8.2-5.4-16-12.5-21.4c-10.3-7.8-18.3-6.5-22.1-3.1   c-3.9,3.5-4.1,9.5-0.6,15.3c1.7,2.8,4.2,5.4,7.5,7.9c6.9,5.2,15.4,7.5,23.9,6.3c0,0,0,0,0.1,0c-0.1,5.8-2,11.6-5.8,16.6   c-4.6,6-11.2,9.9-18.7,10.9c-7.5,1-15-0.9-21-5.5c0,0,0,0,0,0c-2.8-2.2-5-4.5-6.5-6.8c-0.6-0.9-1.8-1.2-2.8-0.7   c-0.9,0.6-1.2,1.8-0.7,2.8c1.7,2.8,4.2,5.4,7.5,7.9c0,0,0,0,0,0c6.9,5.2,15.4,7.5,23.9,6.3c8.6-1.2,16.2-5.6,21.4-12.5   c4.5-5.9,6.7-12.9,6.6-19.8c6.9-1.8,12.9-5.9,17.3-11.7c4.3-5.7,6.6-12.5,6.6-19.5C86.8,24.8,86.7,23.3,86.5,21.8z M37.3,48.8   c-2.8-2.2-5-4.5-6.5-6.8c-1.3-2.1-1.9-4.1-1.9-5.9c0-1.7,0.6-3.2,1.8-4.3c2.9-2.6,9.2-2.6,17,3.3c6.3,4.8,10.1,11.8,11,19.1   C51.4,55.3,43.6,53.6,37.3,48.8z"
   id="path4"
   style="fill:#ffffff" />
</g>
</svg>
