<?xml version="1.0" encoding="UTF-8" standalone="no"?>
<svg
   xmlns:dc="http://purl.org/dc/elements/1.1/"
   xmlns:cc="http://creativecommons.org/ns#"
   xmlns:rdf="http://www.w3.org/1999/02/22-rdf-syntax-ns#"
   xmlns:svg="http://www.w3.org/2000/svg"
   xmlns="http://www.w3.org/2000/svg"
   xmlns:sodipodi="http://sodipodi.sourceforge.net/DTD/sodipodi-0.dtd"
   xmlns:inkscape="http://www.inkscape.org/namespaces/inkscape"
   width="24"
   height="24"
   viewBox="0 0 24 24"
   version="1.1"
   id="svg4"
   sodipodi:docname="time.svg"
   inkscape:version="1.0.1 (3bc2e813f5, 2020-09-07)">
  <metadata
     id="metadata10">
    <rdf:RDF>
      <cc:Work
         rdf:about="">
        <dc:format>image/svg+xml</dc:format>
        <dc:type
           rdf:resource="http://purl.org/dc/dcmitype/StillImage" />
      </cc:Work>
    </rdf:RDF>
  </metadata>
  <defs
     id="defs8" />
  <sodipodi:namedview
     pagecolor="#ffffff"
     bordercolor="#666666"
     borderopacity="1"
     objecttolerance="10"
     gridtolerance="10"
     guidetolerance="10"
     inkscape:pageopacity="0"
     inkscape:pageshadow="2"
     inkscape:window-width="723"
     inkscape:window-height="480"
     id="namedview6"
     showgrid="false"
     inkscape:zoom="35.416667"
     inkscape:cx="12"
     inkscape:cy="12"
     inkscape:window-x="0"
     inkscape:window-y="0"
     inkscape:window-maximized="0"
     inkscape:current-layer="svg4" />
  <path
     d="M15.91 13.34l2.636-4.026-.454-.406-3.673 3.099c-.675-.138-1.402.068-1.894.618-.736.823-.665 2.088.159 2.824.824.736 2.088.665 2.824-.159.492-.55.615-1.295.402-1.95zm-3.91-10.646v-2.694h4v2.694c-1.439-.243-2.592-.238-4 0zm8.851 2.064l1.407-1.407 1.414 1.414-1.321 1.321c-.462-.484-.964-.927-1.5-1.328zm-18.851 4.242h8v2h-8v-2zm-2 4h8v2h-8v-2zm3 4h7v2h-7v-2zm21-3c0 5.523-4.477 10-10 10-2.79 0-5.3-1.155-7.111-3h3.28c1.138.631 2.439 1 3.831 1 4.411 0 8-3.589 8-8s-3.589-8-8-8c-1.392 0-2.693.369-3.831 1h-3.28c1.811-1.845 4.321-3 7.111-3 5.523 0 10 4.477 10 10z"
     id="path2"
     style="fill:#ffffff" />
</svg>
